<svg xmlns="http://www.w3.org/2000/svg" width="512" height="512" id="rocket"><path fill="#FE5B67" d="M252.325 350.857c23.965-25.959 21.368-66.984-6.449-89.642-24.335-19.82-60.474-17.848-82.56 4.45-15.267 15.413-20.657 36.665-16.515 56.221L89.13 384.359c-13.327 14.437-12.428 36.941 2.008 50.27 14.437 13.326 36.942 12.428 50.27-2.008l57.673-62.475c19.142 2.483 39.154-4.025 53.244-19.289z"></path><path fill="#FEFEFE" d="M231.771 337.813c16.658-18.043 16.685-44.871-.448-58.582-14.976-11.986-38.522-9.195-53.808 6.344-11.944 12.145-16.023 28.662-12.075 42.434l-52.638 57.02c-7.551 8.181-7.841 20.195-.647 26.836 7.193 6.641 19.146 5.394 26.698-2.786l52.637-57.021c13.608 2.747 29.182-2.221 40.281-14.245z"></path><path fill="#FE5B67" d="M239.025 205.363s-20.816-14.874-23.448-43.208c-.555-5.969-6.625-9.859-12.335-8.035-20.473 6.54-59.614 24.519-62.266 66.869-.23 3.667 4.204 5.682 6.813 3.093 13.38-13.278 44.29-36.029 70.336 3.92l20.9-22.639z"></path><path fill="#BC3F4B" d="M239.025 205.363s-8.861-6.336-15.752-18.608c-3.917 6.276-10.124 15.561-15.814 28.435 3.606 3.273 7.181 7.465 10.666 12.813l20.9-22.64z"></path><path fill="#FE5B67" d="M307.875 268.922s16.486 19.563 44.94 19.928c5.993.075 10.355 5.816 8.992 11.653-4.885 20.929-19.685 61.38-61.688 67.401-3.638.521-5.999-3.736-3.627-6.543 12.168-14.396 32.381-47.023-9.519-69.801l20.902-22.638z"></path><path fill="#BC3F4B" d="M307.875 268.922s7.022 8.327 19.805 14.217c-5.942 4.406-14.703 11.334-27.082 18.033-3.551-3.334-8.015-6.563-13.621-9.609l20.898-22.641z"></path><path fill="#FFE3D1" d="M408.85 68.296c-89.037-7.648-166.669 108.36-198.57 163.993-9.453 16.488-6.302 37.307 7.663 50.197l7.368 6.803 7.368 6.801c13.964 12.893 34.967 14.373 50.647 3.635 52.91-36.235 162.355-122.875 147.629-211.021a24.511 24.511 0 0 0-22.105-20.408z"></path><path fill="#FE5B67" d="M276.452 249.376c5.008-5.74 5.669-13.307 1.522-17.135-4.147-3.828-11.638-2.565-16.961 2.883-13.694 14.021-38.372 40.918-50.12 63.858-2.36 4.609 1.495 8.168 5.901 5.447 21.933-13.538 46.774-40.283 59.658-55.053z"></path><path fill="#304757" d="M359.103 144.36c24.146 22.291 47.27 22.142 57.073 20.758 12.647-24.502 19.128-50.393 14.779-76.416a24.511 24.511 0 0 0-22.105-20.407c-26.285-2.258-51.576 6.267-74.991 20.829-.598 9.885 1.098 32.945 25.244 55.236z"></path><circle cx="324.356" cy="181.999" r="31.018" fill="#4A6273"></circle><circle cx="324.356" cy="181.999" r="22.022" fill="#B2CCDB"></circle><path fill="#FEFEFE" d="M308.175 167.061c-8.122 8.797-7.689 22.425.852 30.719l30.123-32.083c-8.943-8.115-22.769-7.526-30.975 1.364zm12.221 36.582 25.22-27.319a21.838 21.838 0 0 0-2.974-6.563l-29.025 31.442a21.856 21.856 0 0 0 6.779 2.44z"></path></svg>